<svg xmlns="http://www.w3.org/2000/svg" viewBox="0 0 24 24"><path fill="currentColor" d="M12 0a1.007 1.007 0 0 0-1.008 1.008A1.009 1.009 0 1 0 12 0zM8.69.541a1.007 1.007 0 0 0-.399.047c-.528.17-.82.74-.646 1.27a1.007 1.007 0 1 0 1.918-.624A1.004 1.004 0 0 0 8.69.541zm6.62 0a1.01 1.01 0 1 0 1.047 1.316a1.01 1.01 0 0 0-.65-1.27a.998.998 0 0 0-.396-.046zm-4.722 1.45a.852.852 0 0 0-.172.009a.849.849 0 0 0-.707.973a.85.85 0 0 0 .975.707a.851.851 0 0 0 .707-.973a.854.854 0 0 0-.803-.717zm2.824 0a.85.85 0 0 0-.8.716c-.075.464.241.9.704.973c.464.073.9-.242.975-.705A.853.853 0 0 0 13.584 2a.854.854 0 0 0-.172-.01zM5.504 2.1a1.002 1.002 0 0 0-.557.191a1.01 1.01 0 1 0 .557-.191zm12.992 0a1.007 1.007 0 0 0-.629 1.824a1.01 1.01 0 0 0 1.188-1.633a1.01 1.01 0 0 0-.559-.191zM7.73 2.887a.843.843 0 0 0-.325.091a.85.85 0 0 0-.37 1.145a.846.846 0 0 0 1.142.371a.853.853 0 0 0 .373-1.144a.854.854 0 0 0-.82-.463zm8.543 0a.854.854 0 0 0-.82.463a.851.851 0 0 0 .372 1.144a.846.846 0 0 0 1.143-.37a.85.85 0 0 0-.37-1.146a.852.852 0 0 0-.325-.091zM12 3.562a.709.709 0 0 0-.709.71c0 .392.317.708.709.708a.708.708 0 0 0 .709-.709a.709.709 0 0 0-.709-.709zm-2.328.381a.706.706 0 0 0-.28.034a.708.708 0 0 0-.454.892a.709.709 0 0 0 .892.455a.71.71 0 0 0 .457-.892a.712.712 0 0 0-.615-.489zm4.656 0a.71.71 0 1 0 .734.926a.708.708 0 0 0-.454-.892a.705.705 0 0 0-.28-.034zm-11.183.588a1.013 1.013 0 0 0-.854.416a1.01 1.01 0 0 0 .225 1.409c.45.327 1.08.228 1.406-.223c.33-.45.231-1.082-.22-1.41a.995.995 0 0 0-.557-.192zm17.713 0a1.003 1.003 0 0 0-.56.192a1.008 1.008 0 1 0 .559-.191zM5.443 4.59a.85.85 0 0 0-.601.25a.853.853 0 0 0-.002 1.205a.855.855 0 0 0 1.205 0a.855.855 0 0 0 0-1.205a.847.847 0 0 0-.602-.25zm13.116 0a.852.852 0 0 0-.604.25a.853.853 0 0 0 0 1.205a.854.854 0 0 0 1.205 0a.85.85 0 0 0 0-1.205a.847.847 0 0 0-.601-.25zm-11.125.45a.709.709 0 0 0-.393.134a.71.71 0 0 0 .834 1.146a.707.707 0 0 0 .156-.988a.707.707 0 0 0-.597-.293zm9.132 0a.707.707 0 0 0-.597.292c-.23.317-.16.76.156.988a.707.707 0 0 0 .99-.156a.708.708 0 0 0-.549-1.125zm-5.546.009a.59.59 0 0 0-.12.008a.59.59 0 1 0 .676.49a.59.59 0 0 0-.557-.498zm1.96 0a.588.588 0 0 0-.554.498a.59.59 0 1 0 .674-.49a.59.59 0 0 0-.12-.008zm-3.945.623a.605.605 0 0 0-.228.064a.59.59 0 0 0-.258.793a.592.592 0 0 0 .795.26a.595.595 0 0 0 .26-.797a.589.589 0 0 0-.569-.32zm5.932 0a.589.589 0 0 0-.569.32a.589.589 0 0 0 .256.795a.592.592 0 0 0 .797-.258a.59.59 0 0 0-.26-.793a.586.586 0 0 0-.224-.064zM12 6.188a.488.488 0 0 0-.488.488a.49.49 0 1 0 .488-.488zm-1.603.261a.483.483 0 0 0-.192.024a.487.487 0 1 0 .3.928a.488.488 0 0 0 .315-.616a.492.492 0 0 0-.424-.336zm3.206 0a.486.486 0 0 0-.421.336a.488.488 0 0 0 .312.616a.488.488 0 0 0 .303-.928a.49.49 0 0 0-.194-.024zm-7.83.3a.705.705 0 0 0-.597.292a.709.709 0 1 0 .988-.158a.702.702 0 0 0-.39-.135zm12.456 0a.71.71 0 0 0-.393.134a.707.707 0 0 0-.158.99a.709.709 0 1 0 1.149-.832a.705.705 0 0 0-.598-.293zm-10.784.107a.592.592 0 0 0-.418.173a.59.59 0 0 0 0 .834a.59.59 0 0 0 .836 0a.591.591 0 0 0 .002-.836a.592.592 0 0 0-.42-.171zm9.11 0a.589.589 0 0 0-.418.173a.587.587 0 0 0 0 .834a.589.589 0 0 0 .834 0a.59.59 0 0 0 .002-.834a.588.588 0 0 0-.418-.173zM3.799 6.94a.856.856 0 0 0-.82.464a.849.849 0 0 0 .372 1.143a.85.85 0 1 0 .772-1.516a.843.843 0 0 0-.324-.091zm16.404 0a.853.853 0 0 0-.326.091a.851.851 0 1 0 1.144.373a.854.854 0 0 0-.818-.464zm-11.35.265a.483.483 0 0 0-.269.092a.49.49 0 0 0 .574.79a.489.489 0 0 0 .108-.68a.484.484 0 0 0-.412-.202zm6.294 0a.485.485 0 0 0-.413.201a.487.487 0 0 0 .11.682a.488.488 0 0 0 .681-.108a.49.49 0 0 0-.109-.683a.483.483 0 0 0-.27-.092zm-3.813.068a.388.388 0 0 0-.08.004a.403.403 0 1 0 .08-.004zm1.332 0a.4.4 0 0 0-.379.338a.408.408 0 0 0 .334.461a.403.403 0 0 0 .127-.795a.41.41 0 0 0-.082-.004zm-11.205.325a1.009 1.009 0 1 0 .396.045a1.001 1.001 0 0 0-.396-.046zm21.078 0a1 1 0 0 0-.396.045c-.53.173-.821.743-.649 1.273c.174.53.741.82 1.27.646a1.007 1.007 0 0 0-.225-1.964zm-12.555.1a.409.409 0 0 0-.156.042a.403.403 0 0 0-.176.54a.4.4 0 0 0 .541.175a.4.4 0 0 0 .176-.539a.397.397 0 0 0-.385-.219zm4.032 0a.399.399 0 0 0-.385.216a.401.401 0 0 0 .176.541a.4.4 0 0 0 .539-.176a.4.4 0 0 0-.176-.54a.398.398 0 0 0-.154-.042zm-6.305.685a.488.488 0 1 0 .27.092a.485.485 0 0 0-.27-.092zm8.58 0a.49.49 0 0 0-.272.092a.487.487 0 0 0-.107.681a.489.489 0 1 0 .79-.572a.481.481 0 0 0-.411-.201zm-9.986.103a.594.594 0 0 0-.57.322a.591.591 0 0 0 .26.794a.587.587 0 0 0 .792-.256a.593.593 0 0 0-.258-.797a.584.584 0 0 0-.224-.063zm11.392 0a.59.59 0 0 0-.226.063a.593.593 0 0 0-.258.797a.59.59 0 0 0 .793.257a.59.59 0 0 0 .258-.795a.587.587 0 0 0-.567-.322zM8.904 8.5a.41.41 0 0 0-.287.12a.402.402 0 0 0 .002.568a.402.402 0 0 0 .568 0a.402.402 0 0 0 0-.569a.4.4 0 0 0-.283-.119zm6.194.002a.4.4 0 0 0-.286.117a.4.4 0 0 0 .003.569a.4.4 0 0 0 .566 0a.401.401 0 0 0 0-.569a.4.4 0 0 0-.283-.117zM4.59 8.906a.708.708 0 0 0-.158 1.379a.707.707 0 0 0 .892-.453a.707.707 0 0 0-.455-.893a.703.703 0 0 0-.28-.033zm14.82 0a.703.703 0 0 0-.28.033a.707.707 0 1 0 .438 1.346a.71.71 0 0 0 .457-.892a.711.711 0 0 0-.615-.487zm-11.283.705a.402.402 0 0 0-.387.22a.4.4 0 0 0 .176.538a.397.397 0 0 0 .539-.174a.401.401 0 0 0-.176-.54a.394.394 0 0 0-.152-.044zm7.746 0a.392.392 0 0 0-.152.043a.4.4 0 0 0-.176.541a.403.403 0 0 0 .539.174a.399.399 0 0 0 .176-.54a.403.403 0 0 0-.387-.218zM2.801 9.7a.853.853 0 0 0-.803.717a.852.852 0 0 0 .709.973a.848.848 0 0 0 .973-.705a.85.85 0 0 0-.705-.975a.875.875 0 0 0-.174-.01zm18.398 0a.854.854 0 0 0-.172.01a.85.85 0 0 0-.707.975a.848.848 0 0 0 .973.705a.85.85 0 0 0 .707-.973a.852.852 0 0 0-.8-.717zm-14.305.168a.488.488 0 0 0-.421.336a.487.487 0 0 0 .314.615a.487.487 0 0 0 .615-.312a.49.49 0 0 0-.314-.617a.489.489 0 0 0-.194-.022zm10.211 0a.489.489 0 0 0-.193.022a.493.493 0 0 0-.314.617a.49.49 0 0 0 .617.312a.486.486 0 0 0 .31-.615a.483.483 0 0 0-.42-.336zM5.611 10.4a.59.59 0 0 0-.554.498a.591.591 0 1 0 1.166.188a.593.593 0 0 0-.493-.678a.586.586 0 0 0-.119-.008zm12.778 0a.593.593 0 0 0-.12.008a.592.592 0 0 0-.492.678a.59.59 0 0 0 .676.49a.592.592 0 0 0 .49-.678a.59.59 0 0 0-.554-.498zm-10.733.514a.404.404 0 0 0-.379.336a.402.402 0 0 0 .336.461a.4.4 0 0 0 .457-.332a.403.403 0 0 0-.334-.463a.394.394 0 0 0-.08-.002zm8.688 0a.417.417 0 0 0-.082.004a.402.402 0 0 0-.332.461a.4.4 0 0 0 .459.332a.402.402 0 0 0 .334-.459a.4.4 0 0 0-.38-.338zm-15.336.078a1.008 1.008 0 0 0 0 2.016A1.007 1.007 0 0 0 2.016 12c0-.556-.451-1.008-1.008-1.008zm21.984 0a1.008 1.008 0 1 0-.003 2.017a1.008 1.008 0 0 0 .003-2.017zm-18.72.3a.709.709 0 0 0-.71.708a.709.709 0 0 0 .71.709A.709.709 0 0 0 4.98 12a.709.709 0 0 0-.709-.709zm15.456 0a.71.71 0 0 0 0 1.417a.706.706 0 0 0 .707-.709a.707.707 0 0 0-.707-.709zm-13.052.218a.49.49 0 0 0-.489.49c0 .269.219.488.489.486a.488.488 0 1 0 0-.976zm10.648 0a.49.49 0 0 0-.488.49a.486.486 0 0 0 .488.486a.487.487 0 0 0 .488-.486a.49.49 0 0 0-.488-.49zm-1.017.773a.4.4 0 0 0-.377.338a.401.401 0 1 0 .793.127a.398.398 0 0 0-.334-.459a.408.408 0 0 0-.082-.006zm-8.614.002a.417.417 0 0 0-.082.004a.4.4 0 0 0-.334.46a.403.403 0 0 0 .461.333a.404.404 0 0 0 .334-.46a.4.4 0 0 0-.379-.337zm-2.027.133a.606.606 0 0 0-.121.006a.59.59 0 0 0-.488.676a.59.59 0 0 0 .673.492a.592.592 0 0 0 .493-.678a.589.589 0 0 0-.557-.496zm12.668 0a.59.59 0 0 0-.557.498a.59.59 0 1 0 1.166.184a.589.589 0 0 0-.49-.676a.585.585 0 0 0-.119-.006zM2.879 12.6a.854.854 0 0 0-.172.01a.852.852 0 1 0 .973.707a.85.85 0 0 0-.801-.717zm18.242 0a.851.851 0 1 0 .174.01a.874.874 0 0 0-.174-.01zm-14.14.558a.492.492 0 0 0-.194.022a.49.49 0 0 0-.314.617a.49.49 0 0 0 .93-.303a.488.488 0 0 0-.423-.336zm10.04 0a.49.49 0 0 0-.423.336a.49.49 0 0 0 .314.615a.485.485 0 0 0 .613-.312a.488.488 0 0 0-.31-.617a.492.492 0 0 0-.194-.022zm-8.95.428a.396.396 0 0 0-.153.043a.398.398 0 0 0-.176.54a.399.399 0 0 0 .537.177a.4.4 0 0 0 .176-.54a.403.403 0 0 0-.385-.22zm7.86 0a.405.405 0 0 0-.388.219a.404.404 0 0 0 .176.54a.404.404 0 0 0 .543-.175c.1-.196.02-.44-.178-.541a.39.39 0 0 0-.152-.043zm-11.22.094a.705.705 0 0 0-.28.033a.71.71 0 0 0-.454.894a.707.707 0 0 0 .892.454a.707.707 0 0 0 .455-.893a.711.711 0 0 0-.613-.488zm14.578 0a.712.712 0 0 0-.613.49c-.12.372.082.77.455.89a.707.707 0 0 0 .892-.453a.71.71 0 0 0-.455-.894a.704.704 0 0 0-.279-.033zm-13.07.654a.58.58 0 0 0-.225.062a.591.591 0 0 0-.26.795a.59.59 0 0 0 .795.258a.586.586 0 0 0 .258-.793a.591.591 0 0 0-.568-.322zm11.562 0a.592.592 0 0 0-.568.32a.59.59 0 0 0 .258.795a.592.592 0 1 0 .535-1.053a.578.578 0 0 0-.225-.062zm-16.148.057a.992.992 0 0 0-.397.046a1.009 1.009 0 1 0 1.27.647a1.009 1.009 0 0 0-.873-.693zm20.734 0a1.01 1.01 0 0 0-.873.693a1.008 1.008 0 1 0 1.27-.646a.992.992 0 0 0-.397-.047zm-14.691.25a.485.485 0 0 0-.27.093a.49.49 0 0 0-.11.682a.49.49 0 0 0 .685.11a.491.491 0 0 0 .109-.684a.494.494 0 0 0-.414-.201zm8.648 0a.491.491 0 0 0-.412.2a.49.49 0 0 0 .107.684c.219.159.526.11.682-.109a.487.487 0 0 0-.107-.682a.484.484 0 0 0-.27-.093zm-7.42.054a.402.402 0 0 0-.285.115a.402.402 0 0 0 0 .569a.403.403 0 0 0 .569.002a.403.403 0 0 0 0-.57a.397.397 0 0 0-.284-.116zm6.192 0a.398.398 0 0 0-.283.117a.401.401 0 1 0 .568.569a.402.402 0 0 0 0-.569a.403.403 0 0 0-.285-.117zm-11.42.666a.842.842 0 0 0-.324.09a.851.851 0 1 0 .324-.09zm16.648 0a.855.855 0 0 0-.82.463a.851.851 0 1 0 1.144-.373a.84.84 0 0 0-.324-.09zm-6.365.139a.404.404 0 0 0-.154.043a.405.405 0 0 0-.174.541a.399.399 0 0 0 .539.176a.404.404 0 0 0 .176-.541a.4.4 0 0 0-.387-.219zm-3.918.002a.401.401 0 0 0-.387.217a.401.401 0 0 0 .176.54a.402.402 0 0 0 .365-.717a.402.402 0 0 0-.154-.04zm-1.152.316a.487.487 0 0 0-.412.202a.487.487 0 1 0 .789.572a.49.49 0 0 0-.108-.682a.483.483 0 0 0-.27-.092zm6.224 0a.483.483 0 0 0-.27.092a.489.489 0 1 0 .682.11a.486.486 0 0 0-.412-.202zm-9.39.016a.7.7 0 0 0-.391.133a.712.712 0 0 0-.156.992a.704.704 0 0 0 .988.156a.707.707 0 0 0 .158-.988a.711.711 0 0 0-.6-.293zm12.554 0a.713.713 0 0 0-.6.293a.705.705 0 0 0 .159.988a.706.706 0 0 0 .99-.156a.711.711 0 0 0-.158-.992a.699.699 0 0 0-.39-.133zm-6.98.088a.405.405 0 0 0-.381.342a.406.406 0 0 0 .338.459a.402.402 0 0 0 .125-.795a.412.412 0 0 0-.082-.006zm1.406.002a.41.41 0 0 0-.082.004a.401.401 0 0 0-.332.46a.401.401 0 0 0 .46.335a.399.399 0 0 0 .331-.46a.4.4 0 0 0-.377-.34zm-5.258.039a.59.59 0 0 0-.418.174a.59.59 0 0 0 .836.834a.589.589 0 0 0 .002-.834a.596.596 0 0 0-.42-.174zm9.11 0a.59.59 0 0 0-.418.174a.587.587 0 0 0 0 .834a.588.588 0 0 0 .834 0a.59.59 0 0 0 0-.834a.585.585 0 0 0-.416-.174zm-6.242.613a.488.488 0 0 0-.422.336a.486.486 0 0 0 .314.615a.489.489 0 0 0 .615-.312a.49.49 0 0 0-.314-.617a.49.49 0 0 0-.193-.022zm3.375 0a.49.49 0 0 0-.194.022a.489.489 0 0 0 .303.93a.488.488 0 0 0 .312-.616a.488.488 0 0 0-.421-.336zm-1.688.26a.488.488 0 0 0-.488.488a.488.488 0 1 0 .488-.488zm-2.883.312a.59.59 0 0 0-.568.32a.593.593 0 0 0 .258.796a.592.592 0 0 0 .797-.258a.594.594 0 0 0-.258-.795a.6.6 0 0 0-.229-.063zm5.766 0a.59.59 0 0 0-.227.063a.593.593 0 0 0-.26.795c.15.29.507.406.797.258a.59.59 0 0 0 .256-.795a.586.586 0 0 0-.566-.32zm-11.81.303a1.004 1.004 0 0 0-.557.193a1.01 1.01 0 1 0 1.408.223a1.01 1.01 0 0 0-.852-.416zm17.855.002a1.009 1.009 0 1 0 .556.192a1 1 0 0 0-.556-.192zm-13.446.09a.708.708 0 0 0-.597.293a.71.71 0 1 0 .99-.158a.704.704 0 0 0-.393-.135zm9.036 0a.704.704 0 0 0-.393.135a.71.71 0 0 0-.156.99a.71.71 0 0 0 .99.158a.708.708 0 0 0 .156-.99a.707.707 0 0 0-.597-.293zm-11.075.162a.847.847 0 0 0-.601.25a.85.85 0 1 0 1.203 1.203a.852.852 0 0 0-.602-1.453zm13.116.002a.855.855 0 0 0-.604.248a.85.85 0 0 0 0 1.203a.854.854 0 0 0 1.205 0a.85.85 0 0 0 0-1.203a.844.844 0 0 0-.601-.248zm-7.592.062a.59.59 0 0 0-.066 1.174a.59.59 0 0 0 .675-.492a.587.587 0 0 0-.49-.674a.594.594 0 0 0-.12-.008zm2.066 0a.591.591 0 0 0-.119.008a.588.588 0 0 0-.488.674c.05.322.35.544.674.492a.59.59 0 0 0 .49-.675a.59.59 0 0 0-.557-.498zm-3.482.873a.71.71 0 0 0-.613.489a.708.708 0 0 0 .455.892a.71.71 0 0 0 .894-.455a.71.71 0 0 0-.457-.892a.707.707 0 0 0-.28-.033zm4.898 0a.706.706 0 0 0-.28.032a.71.71 0 1 0 .893.457a.709.709 0 0 0-.613-.488zM12 19.02a.709.709 0 0 0-.709.709a.71.71 0 0 0 .709.709a.709.709 0 0 0 .709-.71a.709.709 0 0 0-.709-.708zm-4.15.394a.852.852 0 0 0-.819.463a.85.85 0 1 0 1.145-.373a.85.85 0 0 0-.326-.09zm8.3 0a.86.86 0 0 0-.328.09a.852.852 0 1 0 .775 1.516a.848.848 0 0 0 .37-1.143a.847.847 0 0 0-.817-.463zm-10.576.469a1.009 1.009 0 0 0-.851.416a1.009 1.009 0 0 0 .224 1.408a1.008 1.008 0 0 0 1.409-.223a1.007 1.007 0 0 0-.223-1.408a1.01 1.01 0 0 0-.559-.193zm12.852 0a1.012 1.012 0 0 0-.559.193a1.009 1.009 0 1 0 1.41.223a1.008 1.008 0 0 0-.851-.416zm-7.914.426a.854.854 0 0 0-.803.718a.85.85 0 1 0 1.68.264a.849.849 0 0 0-.705-.973a.852.852 0 0 0-.172-.01zm2.978 0a.851.851 0 0 0-.879.984a.85.85 0 1 0 1.68-.266a.852.852 0 0 0-.8-.718zm-4.972 1.14a1.01 1.01 0 0 0-.227 1.963a1.008 1.008 0 1 0 .623-1.918a.999.999 0 0 0-.396-.045zm6.964 0a.999.999 0 0 0-.396.045a1.01 1.01 0 0 0-.65 1.27a1.01 1.01 0 0 0 1.921-.621a1.012 1.012 0 0 0-.875-.694zM12 21.982A1.01 1.01 0 0 0 12 24a1.007 1.007 0 0 0 1.008-1.008c0-.556-.45-1.01-1.008-1.01Z"/></svg>